<?xml version="1.0" encoding="utf-8"?>
<!-- Generator: Adobe Illustrator 19.2.1, SVG Export Plug-In . SVG Version: 6.00 Build 0)  -->
<svg version="1.1" id="Livello_1" xmlns="http://www.w3.org/2000/svg" xmlns:xlink="http://www.w3.org/1999/xlink" x="0px" y="0px"
	 viewBox="0 0 300 69" style="enable-background:new 0 0 300 69;" xml:space="preserve">
<style type="text/css">
	.st0{fill:#143F70;}
	.st1{fill:#2E67AA;}
</style>
<g>
	<g>
		<path d="M81.7,19h9.8v32.5h-6.3v-22c0-0.6,0-1.5,0-2.7c0-1.1,0-2,0-2.6l-6.2,27.3h-6.6l-6.1-27.3c0,0.6,0,1.5,0,2.6
			c0,1.1,0,2,0,2.7v22H60V19h9.9l5.9,25.6L81.7,19z"/>
		<path d="M112.7,27.9c1.7,0.8,3.1,1.9,4.2,3.6c1,1.4,1.6,3.1,1.9,5c0.2,1.1,0.2,2.7,0.2,4.8h-17.5c0.1,2.4,0.9,4.1,2.5,5.1
			c1,0.6,2.1,0.9,3.5,0.9c1.4,0,2.6-0.4,3.5-1.1c0.5-0.4,0.9-0.9,1.3-1.7h6.4c-0.2,1.4-0.9,2.9-2.3,4.3c-2.2,2.3-5.2,3.5-9,3.5
			c-3.2,0-6-1-8.5-3c-2.4-2-3.7-5.2-3.7-9.6c0-4.2,1.1-7.4,3.3-9.6c2.2-2.2,5.1-3.3,8.6-3.3C109.1,26.8,111,27.2,112.7,27.9z
			 M103.2,33.3c-0.9,0.9-1.4,2.2-1.7,3.7h10.8c-0.1-1.7-0.7-2.9-1.7-3.8c-1-0.9-2.2-1.3-3.7-1.3C105.4,32,104.1,32.4,103.2,33.3z"/>
		<path d="M119.3,32.1v-4.5h3.4v-6.7h6.2v6.7h3.9v4.5h-3.9v12.7c0,1,0.1,1.6,0.4,1.8c0.2,0.2,1,0.4,2.3,0.4c0.2,0,0.4,0,0.6,0
			c0.2,0,0.4,0,0.6,0v4.7l-3,0.1c-3,0.1-5-0.4-6.1-1.5c-0.7-0.7-1.1-1.8-1.1-3.3V32.1H119.3z"/>
		<path d="M141.9,41.4c0.2,1.5,0.6,2.6,1.2,3.3c1.1,1.3,3.1,2,5.8,2c1.6,0,3-0.2,4-0.5c1.9-0.7,2.9-1.9,2.9-3.8
			c0-1.1-0.5-1.9-1.4-2.5c-0.9-0.6-2.5-1.1-4.5-1.5l-3.5-0.8c-3.5-0.8-5.8-1.6-7.1-2.5c-2.2-1.5-3.3-3.8-3.3-7
			c0-2.9,1.1-5.3,3.2-7.3c2.1-1.9,5.3-2.9,9.4-2.9c3.5,0,6.4,0.9,8.9,2.7c2.5,1.8,3.7,4.5,3.9,7.9h-6.5c-0.1-2-1-3.3-2.6-4.2
			c-1.1-0.5-2.4-0.8-4-0.8c-1.8,0-3.2,0.4-4.3,1.1c-1.1,0.7-1.6,1.7-1.6,3c0,1.2,0.5,2,1.6,2.6c0.7,0.4,2.1,0.8,4.3,1.3l5.7,1.3
			c2.5,0.6,4.4,1.4,5.6,2.4c1.9,1.5,2.9,3.7,2.9,6.6c0,3-1.1,5.4-3.4,7.4c-2.3,2-5.5,2.9-9.7,2.9c-4.3,0-7.6-1-10.1-2.9
			c-2.5-1.9-3.7-4.6-3.7-8H141.9z"/>
		<path d="M182,27.9c1.7,0.8,3.1,1.9,4.2,3.6c1,1.4,1.6,3.1,1.9,5c0.2,1.1,0.2,2.7,0.2,4.8h-17.5c0.1,2.4,0.9,4.1,2.5,5.1
			c1,0.6,2.1,0.9,3.5,0.9c1.4,0,2.6-0.4,3.5-1.1c0.5-0.4,0.9-0.9,1.3-1.7h6.4c-0.2,1.4-0.9,2.9-2.3,4.3c-2.2,2.3-5.2,3.5-9,3.5
			c-3.2,0-6-1-8.5-3c-2.4-2-3.7-5.2-3.7-9.6c0-4.2,1.1-7.4,3.3-9.6c2.2-2.2,5.1-3.3,8.6-3.3C178.5,26.8,180.4,27.2,182,27.9z
			 M172.6,33.3c-0.9,0.9-1.4,2.2-1.7,3.7h10.8c-0.1-1.7-0.7-2.9-1.7-3.8c-1-0.9-2.2-1.3-3.7-1.3C174.8,32,173.5,32.4,172.6,33.3z"/>
		<path d="M204.5,26.9c0.1,0,0.3,0,0.5,0v6.4c-0.4,0-0.8-0.1-1.1-0.1c-0.3,0-0.6,0-0.8,0c-2.5,0-4.2,0.8-5.1,2.5
			c-0.5,0.9-0.7,2.4-0.7,4.3v11.5h-6.3V27.4h6v4.2c1-1.6,1.8-2.7,2.5-3.3c1.2-1,2.7-1.5,4.6-1.5C204.4,26.9,204.5,26.9,204.5,26.9z"
			/>
		<path d="M223.3,27.4h6.8l-8.7,24.1h-6.6l-8.6-24.1h7.1l5,17.7L223.3,27.4z"/>
		<path d="M239.7,24.6h-6.4v-5.8h6.4V24.6z M233.3,27.4h6.4v24.1h-6.4V27.4z"/>
		<path d="M259.9,36.1c-0.1-0.9-0.4-1.7-0.9-2.4c-0.7-1-1.8-1.5-3.3-1.5c-2.1,0-3.6,1.1-4.4,3.2c-0.4,1.1-0.6,2.6-0.6,4.4
			c0,1.8,0.2,3.2,0.6,4.2c0.8,2,2.2,3,4.2,3c1.5,0,2.5-0.4,3.1-1.2c0.6-0.8,1-1.8,1.1-3.1h6.4c-0.1,1.9-0.8,3.7-2.1,5.4
			c-2,2.8-4.9,4.1-8.8,4.1s-6.7-1.1-8.5-3.4c-1.8-2.3-2.7-5.3-2.7-8.9c0-4.1,1-7.3,3-9.6c2-2.3,4.8-3.4,8.3-3.4c3,0,5.5,0.7,7.4,2
			c1.9,1.4,3.1,3.7,3.4,7.2H259.9z"/>
		<path d="M286,27.9c1.7,0.8,3.1,1.9,4.2,3.6c1,1.4,1.6,3.1,1.9,5c0.2,1.1,0.2,2.7,0.2,4.8h-17.5c0.1,2.4,0.9,4.1,2.5,5.1
			c1,0.6,2.1,0.9,3.5,0.9c1.4,0,2.6-0.4,3.5-1.1c0.5-0.4,0.9-0.9,1.3-1.7h6.4c-0.2,1.4-0.9,2.9-2.3,4.3c-2.2,2.3-5.2,3.5-9,3.5
			c-3.2,0-6-1-8.5-3c-2.4-2-3.7-5.2-3.7-9.6c0-4.2,1.1-7.4,3.3-9.6c2.2-2.2,5.1-3.3,8.6-3.3C282.4,26.8,284.3,27.2,286,27.9z
			 M276.6,33.3c-0.9,0.9-1.4,2.2-1.7,3.7h10.8c-0.1-1.7-0.7-2.9-1.7-3.8c-1-0.9-2.2-1.3-3.7-1.3C278.7,32,277.5,32.4,276.6,33.3z"/>
	</g>
	<g>
		<g>
			<path class="st0" d="M26.1,9.6c1.7,0,3.3,0.6,4.6,1.9l6.1,6.1c0.1,0.1,0.2,0.2,0.3,0.4l4.9,4.9c2.5,2.5,2.5,6.6,0,9.1l-2.3,2.3
				l2.3,2.3c2.5,2.5,2.5,6.6,0,9.1L30.6,57c-2.5,2.5-6.6,2.5-9.1,0L10.2,45.7c-1.2-1.2-1.9-2.8-1.9-4.6c0-1.7,0.7-3.3,1.9-4.6
				l2.3-2.3L10.2,32c-2.5-2.5-2.5-6.6,0-9.1l4.9-4.9c0.1-0.1,0.2-0.3,0.3-0.4l6.1-6.1C22.8,10.3,24.4,9.6,26.1,9.6z M29.5,12.6
				c-1.9-1.9-5-1.9-6.9,0L16.2,19c-0.7,0.9-1.1,2-1.1,3.1c0,1.3,0.5,2.5,1.4,3.5l2.3,2.3l2.7-2.7c2.5-2.5,6.6-2.5,9.1,0l2.7,2.7
				l2.3-2.3c0.9-0.9,1.4-2.2,1.4-3.5c0-1.2-0.4-2.3-1.1-3.1L29.5,12.6z M17.7,29l-2.3-2.3c-1.4-1.4-2-3.2-1.9-5L11.3,24
				c-1.9,1.9-1.9,5,0,6.9l2.3,2.3L17.7,29z M38.6,33.2l2.3-2.3c1.9-1.9,1.9-5,0-6.9l-2.3-2.3c0.1,1.8-0.5,3.7-1.9,5L34.4,29
				L38.6,33.2z M32.2,29l-2.7-2.7c-1.9-1.9-5-1.9-6.9,0L19.9,29l2.7,2.7c1.9,1.9,5,1.9,6.9,0L32.2,29z M37.5,34.3l-4.2-4.2l-2.7,2.7
				c-2.5,2.5-6.6,2.5-9.1,0l-2.7-2.7l-4.2,4.2l8,8c1.9,1.9,5,1.9,6.9,0L37.5,34.3z M26.1,45.2c-1.7,0-3.3-0.6-4.6-1.9l-8-8l-2.3,2.3
				c-0.9,0.9-1.4,2.2-1.4,3.5c0,1.3,0.5,2.5,1.4,3.5L22.6,56c1.9,1.9,5,1.9,6.9,0l11.3-11.3c1.9-1.9,1.9-5,0-6.9l-2.3-2.3l-8,8
				C29.4,44.6,27.7,45.2,26.1,45.2z"/>
			<path class="st0" d="M26.1,59.1c-1.7,0-3.4-0.6-4.7-1.9L10,45.8c-1.3-1.3-1.9-2.9-1.9-4.7c0-1.8,0.7-3.4,1.9-4.7l2.1-2.1L10,32.2
				c-1.3-1.3-1.9-2.9-1.9-4.7c0-1.8,0.7-3.4,1.9-4.7l4.9-4.9c0.1-0.1,0.2-0.2,0.3-0.4l6.1-6.1c1.3-1.3,2.9-1.9,4.7-1.9
				s3.4,0.7,4.7,1.9l6.1,6.1c0.1,0.1,0.2,0.3,0.4,0.4l4.9,4.9c2.6,2.6,2.6,6.8,0,9.4L40,34.3l2.1,2.1c2.6,2.6,2.6,6.8,0,9.4
				L30.8,57.2C29.5,58.5,27.8,59.1,26.1,59.1z M26.1,9.8c-1.7,0-3.2,0.6-4.4,1.8l-6.1,6.1c-0.1,0.1-0.2,0.2-0.3,0.4L10.3,23
				c-2.4,2.4-2.4,6.4,0,8.8l2.4,2.4l-2.4,2.4c-1.2,1.2-1.8,2.7-1.8,4.4c0,1.7,0.6,3.2,1.8,4.4l11.3,11.3c2.4,2.4,6.4,2.4,8.8,0
				l11.3-11.3c2.4-2.4,2.4-6.4,0-8.8l-2.4-2.4l2.4-2.4c2.4-2.4,2.4-6.4,0-8.8l-4.9-4.9c-0.1-0.1-0.2-0.3-0.3-0.4l-6.1-6.1
				C29.3,10.5,27.7,9.8,26.1,9.8z M26.1,57.6c-1.3,0-2.6-0.5-3.6-1.5L11.1,44.8c-1-1-1.5-2.2-1.5-3.6c0-1.4,0.5-2.6,1.5-3.6l2.4-2.4
				l8.1,8.1c1.2,1.2,2.7,1.8,4.4,1.8c1.7,0,3.2-0.6,4.4-1.8l8.1-8.1l2.4,2.4c2,2,2,5.2,0,7.2L29.7,56.1
				C28.7,57.1,27.4,57.6,26.1,57.6z M13.6,35.7l-2.1,2.1c-0.9,0.9-1.4,2.1-1.4,3.3c0,1.3,0.5,2.4,1.4,3.3l11.3,11.3
				c1.8,1.8,4.8,1.8,6.6,0l11.3-11.3c1.8-1.8,1.8-4.8,0-6.6l-2.1-2.1l-7.8,7.8c-1.3,1.3-2.9,1.9-4.7,1.9s-3.4-0.7-4.7-1.9L13.6,35.7
				z M26.1,43.9c-1.3,0-2.6-0.5-3.6-1.5l-8.1-8.1l4.5-4.5l2.8,2.8c2.4,2.4,6.4,2.4,8.8,0l2.8-2.8l4.5,4.5l-8.1,8.1
				C28.7,43.4,27.4,43.9,26.1,43.9z M14.9,34.3l7.8,7.8c1.8,1.8,4.8,1.8,6.6,0l7.8-7.8l-3.9-3.9L30.8,33c-2.6,2.6-6.8,2.6-9.4,0
				l-2.5-2.5L14.9,34.3z M38.6,33.5L34.1,29l2.4-2.4c1.3-1.3,1.9-3.1,1.8-4.9l0-0.5l2.7,2.7c2,2,2,5.2,0,7.2L38.6,33.5z M34.7,29
				l3.9,3.9l2.1-2.1c1.8-1.8,1.8-4.8,0-6.6l-1.9-1.9c0,1.7-0.7,3.4-1.9,4.7L34.7,29z M13.6,33.5l-2.4-2.4c-2-2-2-5.2,0-7.2l2.7-2.7
				l0,0.5c-0.1,1.8,0.5,3.6,1.8,4.9L18,29L13.6,33.5z M13.3,22.2l-1.9,1.9c-1.8,1.8-1.8,4.8,0,6.6l2.1,2.1l3.9-3.9l-2.2-2.2
				C14,25.6,13.3,24,13.3,22.2z M26.1,33.4c-1.3,0-2.6-0.5-3.6-1.5L19.6,29l2.8-2.8c2-2,5.2-2,7.2,0l2.8,2.8l-2.8,2.8
				C28.7,32.9,27.4,33.4,26.1,33.4z M20.2,29l2.5,2.5c1.8,1.8,4.8,1.8,6.6,0l2.5-2.5l-2.5-2.5c-1.8-1.8-4.8-1.8-6.6,0L20.2,29z
				 M33.3,28.2l-2.8-2.8c-2.4-2.4-6.4-2.4-8.8,0l-2.8,2.8l-2.4-2.4c-1-1-1.5-2.2-1.5-3.6c0-1.2,0.4-2.3,1.2-3.3l6.4-6.4
				c1-1,2.2-1.5,3.6-1.5s2.6,0.5,3.6,1.5l6.4,6.4c0.8,0.9,1.2,2.1,1.2,3.3c0,1.4-0.5,2.6-1.5,3.6L33.3,28.2z M26.1,23.2
				c1.7,0,3.4,0.6,4.7,1.9l2.5,2.5l2.2-2.2c0.9-0.9,1.4-2.1,1.4-3.3c0-1.1-0.4-2.2-1.1-3l-6.4-6.4c-1.8-1.8-4.8-1.8-6.6,0l-6.4,6.4
				c-0.7,0.8-1.1,1.9-1.1,3c0,1.3,0.5,2.4,1.4,3.3l2.2,2.2l2.5-2.5C22.7,23.8,24.4,23.2,26.1,23.2z"/>
		</g>
		<g>
			<path class="st1" d="M26,59.4c-1.9,0-3.8-0.8-5.1-2.1L10,46.3c-1.4-1.4-2.1-3.2-2.1-5.1c0-0.3,0-0.6,0.1-1
				c0.2-1.7,0.9-3.2,2.2-4.4L21.2,25c1.4-1.4,3.2-2.1,5.2-2c1.9,0,3.7,0.8,5.1,2.2L42,36.1c0.4,0.4,0.7,0.8,1,1.2
				c0.8,1.2,1.3,2.7,1.2,4.2c0,1.9-0.8,3.8-2.2,5.1L39.5,49l-0.3,0.3l-8,7.9C29.8,58.6,28,59.4,26,59.4z M40.6,45
				c1-1,1.5-2.2,1.6-3.6c0-1.1-0.3-2.1-0.9-3l0,0c-0.2-0.3-0.4-0.6-0.7-0.9l-1.1-1.1L30,26.6c-1-1-2.2-1.5-3.6-1.6c0,0-0.1,0-0.1,0
				c-1.3,0-2.6,0.5-3.6,1.4L11.6,37.3c-0.9,0.8-1.4,2-1.5,3.2c0,0.3-0.1,0.5-0.1,0.8c0,1.4,0.5,2.7,1.5,3.6l10.9,10.9
				c1,1,2.2,1.5,3.6,1.5s2.7-0.5,3.6-1.5l12.5-12.5"/>
			<path class="st1" d="M26,59.6c-2,0-3.9-0.8-5.3-2.2L9.9,46.5c-1.4-1.4-2.2-3.3-2.2-5.3c0-0.3,0-0.7,0.1-1c0.2-1.7,1-3.3,2.2-4.5
				l11.1-10.8c1.4-1.4,3.3-2.1,5.3-2.1c2,0,3.9,0.8,5.2,2.3l10.6,10.9c0.4,0.4,0.7,0.8,1,1.2c0.8,1.3,1.3,2.7,1.3,4.3
				c0,2-0.8,3.9-2.3,5.2l-2.9,2.8l-8,7.9C29.9,58.8,28,59.6,26,59.6z M26.2,23.1c-1.8,0-3.5,0.7-4.9,2L10.3,35.9
				c-1.2,1.2-1.9,2.7-2.1,4.3c-0.1,0.4-0.1,0.7-0.1,1c0,1.9,0.7,3.7,2.1,5l10.9,10.9c1.3,1.3,3.1,2.1,5,2.1c1.9,0,3.6-0.7,5-2.1
				l8.3-8.2l2.5-2.5c1.4-1.3,2.1-3.1,2.1-5c0-1.4-0.4-2.8-1.2-4c-0.3-0.4-0.6-0.8-0.9-1.2L31.3,25.3c-1.3-1.4-3.1-2.1-4.9-2.1
				C26.3,23.1,26.3,23.1,26.2,23.1z M26,57.4c-1.4,0-2.8-0.6-3.8-1.6L11.4,45c-1-1-1.6-2.4-1.6-3.8c0-0.2,0-0.5,0.1-0.8
				c0.1-1.2,0.7-2.4,1.6-3.3l11.1-10.8c1-1,2.3-1.5,3.7-1.5l0.1,0c1.4,0,2.8,0.6,3.7,1.6l9.5,9.8l1.1,1.1c0.3,0.3,0.5,0.6,0.7,0.9
				c0.6,0.9,0.9,2,0.9,3.1c0,0.6-0.1,1.2-0.3,1.7l0,0l0.3,0.3l-0.9,0.9c-0.2,0.3-0.5,0.6-0.8,0.9l-0.1-0.1L29.8,55.9
				C28.8,56.9,27.5,57.4,26,57.4z M26.3,25.3c-1.3,0-2.5,0.5-3.4,1.4L11.8,37.4c-0.8,0.8-1.3,1.9-1.5,3c0,0.3-0.1,0.5-0.1,0.7
				c0,1.3,0.5,2.6,1.4,3.5l10.9,10.9c0.9,0.9,2.2,1.4,3.5,1.4c1.3,0,2.5-0.5,3.5-1.4L41.1,44c0.5-0.8,0.8-1.7,0.8-2.6
				c0-1-0.3-2-0.8-2.8c-0.2-0.3-0.4-0.6-0.7-0.9l-1.1-1.1l-9.5-9.8C28.9,25.8,27.7,25.3,26.3,25.3L26.3,25.3z"/>
		</g>
	</g>
</g>
</svg>
