<?xml version="1.0" standalone="no"?>
<!DOCTYPE svg PUBLIC "-//W3C//DTD SVG 20010904//EN"
 "http://www.w3.org/TR/2001/REC-SVG-20010904/DTD/svg10.dtd">
<svg version="1.0" xmlns="http://www.w3.org/2000/svg"
 width="765.000000pt" height="156.000000pt" viewBox="0 0 765.000000 156.000000"
 preserveAspectRatio="xMidYMid meet">
<metadata>
Created by potrace 1.14, written by Peter Selinger 2001-2017
</metadata>
<g transform="translate(0.000000,156.000000) scale(0.100000,-0.100000)"
fill="#000000" stroke="none">
<path d="M435 1424 c-49 -26 -365 -344 -386 -389 -35 -76 -17 -155 50 -219
l31 -29 -44 -47 c-69 -74 -83 -150 -42 -235 30 -63 332 -366 388 -390 48 -19
108 -19 156 0 50 21 368 337 393 390 37 81 20 161 -50 238 l-40 44 35 34 c60
56 80 135 53 206 -13 36 -353 378 -395 398 -41 19 -110 19 -149 -1z m121 -44
c33 -13 210 -183 230 -222 17 -32 18 -81 3 -111 -14 -28 -60 -77 -71 -77 -5 0
-22 15 -39 34 -59 68 -165 95 -242 62 -18 -7 -54 -34 -82 -60 l-50 -47 -37 41
c-76 86 -66 132 59 261 120 124 160 145 229 119z m-322 -419 l36 -37 -53 -52
-54 -53 -36 40 c-62 68 -62 129 -1 200 l37 42 17 -51 c10 -29 34 -68 54 -89z
m692 57 c29 -55 13 -117 -43 -170 l-29 -28 -52 53 -52 53 31 29 c36 35 69 95
69 126 0 22 1 22 31 -7 17 -16 37 -41 45 -56z m-358 -12 c15 -8 44 -32 65 -54
l38 -39 -51 -46 c-82 -74 -138 -74 -217 -2 l-48 43 35 37 c68 73 121 91 178
61z m-126 -231 c78 -32 149 -12 223 64 l39 41 53 -52 53 -52 -107 -109 c-116
-117 -145 -137 -193 -137 -47 0 -66 13 -187 133 l-113 112 52 52 52 53 46 -45
c25 -24 62 -51 82 -60z m1 -285 c39 -14 102 -13 140 4 18 8 81 64 142 125 60
61 115 111 122 111 18 0 72 -71 84 -111 20 -65 3 -91 -179 -271 -195 -194
-217 -207 -296 -168 -59 28 -345 323 -363 374 -17 48 0 102 45 149 l36 37 121
-119 c66 -66 133 -125 148 -131z"/>
<path d="M3645 1190 c-120 -39 -185 -128 -185 -252 0 -80 20 -129 73 -175 41
-36 89 -53 246 -88 139 -32 175 -46 196 -79 21 -32 14 -85 -15 -111 -51 -46
-183 -59 -257 -25 -43 19 -83 69 -83 103 0 15 -11 17 -91 17 l-91 0 7 -42 c10
-58 18 -76 53 -125 102 -138 421 -163 571 -44 84 66 117 208 72 306 -38 82
-89 108 -310 161 -174 41 -205 59 -205 117 0 66 61 107 158 107 30 0 67 -5 83
-11 40 -15 81 -57 88 -90 l7 -29 88 0 89 0 -6 38 c-13 93 -71 164 -173 211
-76 35 -226 40 -315 11z"/>
<path d="M1422 753 l3 -438 82 -3 83 -3 2 358 3 358 74 -335 c41 -184 78 -345
83 -357 7 -21 13 -23 93 -23 80 0 85 1 90 23 3 12 39 173 81 357 41 184 76
335 77 336 1 1 2 -158 2 -354 l0 -357 83 -3 82 -3 0 441 0 440 -124 0 c-70 0
-127 -4 -131 -10 -5 -7 -117 -486 -150 -638 -4 -18 -8 -32 -10 -30 -2 2 -38
151 -79 332 -42 180 -79 332 -82 337 -3 5 -63 9 -135 9 l-129 0 2 -437z"/>
<path d="M6070 1115 l0 -75 85 0 85 0 0 75 0 75 -85 0 -85 0 0 -75z"/>
<path d="M3100 1040 l0 -90 -45 0 -45 0 0 -60 0 -60 45 0 45 0 0 -217 c0 -154
4 -225 13 -243 21 -42 71 -60 170 -60 l87 0 0 60 0 60 -31 0 c-17 0 -39 5 -50
10 -18 10 -19 23 -19 200 l0 190 50 0 50 0 0 60 0 60 -50 0 -50 0 0 90 0 90
-85 0 -85 0 0 -90z"/>
<path d="M2603 970 c-81 -17 -168 -81 -202 -149 -58 -114 -51 -307 14 -401 74
-107 255 -156 397 -108 75 25 153 101 173 166 6 22 5 22 -83 22 -71 0 -91 -3
-96 -15 -10 -27 -69 -55 -114 -55 -83 0 -143 47 -157 123 l-7 37 237 0 238 0
-6 79 c-9 134 -61 222 -161 271 -68 33 -162 45 -233 30z m144 -149 c43 -20 73
-62 73 -101 0 -19 -6 -20 -140 -20 -136 0 -140 1 -140 21 0 30 34 83 62 96 57
28 89 29 145 4z"/>
<path d="M4463 970 c-93 -20 -174 -85 -215 -175 -20 -43 -23 -66 -23 -166 0
-109 2 -119 30 -175 85 -165 349 -215 502 -94 32 25 78 87 87 118 7 22 6 22
-82 22 -71 0 -91 -3 -96 -15 -10 -27 -69 -55 -116 -55 -82 0 -145 49 -157 123
l-6 37 238 0 238 0 -6 81 c-11 137 -67 227 -172 275 -57 26 -159 37 -222 24z
m137 -146 c42 -17 80 -66 80 -103 0 -20 -4 -21 -144 -21 l-145 0 9 29 c26 93
107 132 200 95z"/>
<path d="M5242 969 c-51 -10 -95 -39 -119 -79 -25 -42 -33 -37 -33 20 l0 50
-80 0 -80 0 2 -322 3 -323 82 -3 81 -3 4 198 c3 165 6 203 21 230 23 43 64 63
132 63 l55 0 0 84 c0 94 -2 97 -68 85z"/>
<path d="M6605 970 c-136 -19 -222 -116 -244 -276 -20 -136 17 -264 97 -336
52 -47 100 -62 197 -62 155 0 254 78 289 227 l7 28 -88 -3 -87 -3 -8 -31 c-12
-47 -50 -77 -101 -78 -83 -2 -127 52 -135 165 -10 147 38 229 135 229 48 0 81
-22 99 -66 l14 -34 86 0 86 0 -7 33 c-12 61 -54 134 -93 160 -57 39 -159 59
-247 47z"/>
<path d="M7253 970 c-97 -20 -169 -75 -210 -158 -23 -48 -28 -72 -31 -158 -7
-175 37 -263 161 -323 104 -50 230 -50 328 0 44 22 113 98 128 139 l10 30 -89
0 c-77 0 -91 -3 -103 -20 -33 -47 -116 -64 -180 -36 -47 20 -78 58 -84 105
l-6 41 237 0 236 0 -6 73 c-18 192 -115 296 -294 311 -30 3 -74 1 -97 -4z
m154 -155 c28 -19 49 -51 58 -87 l7 -28 -147 0 -147 0 6 28 c23 94 141 141
223 87z"/>
<path d="M5344 938 c3 -13 54 -158 114 -323 l107 -300 90 0 89 0 112 310 c62
171 113 316 113 323 1 9 -23 12 -86 12 l-88 0 -63 -223 c-35 -122 -66 -229
-69 -237 -3 -8 -35 91 -72 220 l-66 235 -94 3 c-93 3 -93 3 -87 -20z"/>
<path d="M6070 645 c0 -173 0 -318 0 -322 0 -5 37 -8 83 -8 l82 0 3 323 2 322
-85 0 -85 0 0 -315z"/>
</g>
</svg>
